<svg xmlns="http://www.w3.org/2000/svg" xmlns:xlink="http://www.w3.org/1999/xlink" width="500" zoomAndPan="magnify" viewBox="0 0 375 374.999991" height="500" preserveAspectRatio="xMidYMid meet" version="1.0"><defs><g/><clipPath id="756780ce19"><path d="M 143 133 L 244.867188 133 L 244.867188 151 L 143 151 Z M 143 133 " clip-rule="nonzero"/></clipPath><clipPath id="7a9ceb147c"><path d="M 130.117188 141 L 182 141 L 182 152.703125 L 130.117188 152.703125 Z M 130.117188 141 " clip-rule="nonzero"/></clipPath></defs><rect x="-37.5" width="450" fill="#ffffff" y="-37.499999" height="449.999989" fill-opacity="1"/><rect x="-37.5" width="450" fill="#ffffff" y="-37.499999" height="449.999989" fill-opacity="1"/><rect x="-37.5" width="450" fill="#1c4c64" y="-37.499999" height="449.999989" fill-opacity="1"/><g clip-path="url(#756780ce19)"><path fill="#ffe7be" d="M 241.175781 136.308594 C 237.488281 135.027344 233.554688 135.125 229.492188 136.601562 C 228.363281 137.011719 227.226562 137.441406 226.023438 137.894531 L 225.96875 137.917969 C 219.050781 140.539062 211.210938 143.507812 202.324219 143.507812 C 201.199219 143.507812 200.0625 143.460938 198.949219 143.363281 C 193.605469 142.90625 188.621094 140.601562 183.796875 138.367188 C 178.609375 135.96875 173.246094 133.484375 167.234375 133.132812 C 161.386719 132.855469 155.5625 133.152344 149.769531 134.019531 L 143.765625 134.945312 L 149.832031 135.289062 C 161.222656 135.929688 171 140.933594 177.472656 144.246094 C 185.890625 148.554688 192.535156 150.570312 198.390625 150.589844 C 198.464844 150.589844 198.539062 150.59375 198.613281 150.59375 C 210.375 150.589844 216.421875 147.023438 222.28125 143.5625 C 227.523438 140.472656 232.472656 137.550781 240.894531 137.550781 L 244.742188 137.550781 Z M 241.175781 136.308594 " fill-opacity="1" fill-rule="nonzero"/></g><path fill="#ffe7be" d="M 165.988281 127.402344 C 175.652344 127.402344 180.8125 129.78125 184.574219 131.515625 L 185.027344 131.722656 C 185.71875 132.042969 186.464844 132.433594 187.332031 132.894531 C 191.230469 134.949219 196.746094 137.859375 204.996094 137.859375 C 207.101562 137.851562 209.191406 137.675781 211.265625 137.332031 L 215.308594 136.667969 L 211.253906 136.066406 C 202.363281 134.753906 198.234375 131.933594 194.242188 129.210938 C 191.203125 127.136719 188.332031 125.179688 183.425781 123.945312 C 175.558594 121.964844 167.121094 122.851562 156.878906 126.734375 L 152.015625 128.578125 L 157.179688 127.964844 C 160.105469 127.605469 163.042969 127.417969 165.988281 127.402344 Z M 184.84375 130.9375 Z M 184.84375 130.9375 " fill-opacity="1" fill-rule="nonzero"/><g clip-path="url(#7a9ceb147c)"><path fill="#ffe7be" d="M 172.734375 148.589844 C 167.445312 145.925781 161.972656 143.167969 153.90625 141.609375 C 147.550781 140.382812 140.75 141.242188 136.160156 142.175781 L 130.226562 143.390625 L 136.28125 143.441406 C 144.289062 143.511719 148.558594 145.511719 152.328125 147.277344 C 153.269531 147.722656 154.164062 148.140625 155.074219 148.507812 C 163.441406 151.894531 171.191406 152.5 178.320312 152.648438 L 181.46875 152.714844 L 178.589844 151.425781 C 176.546875 150.511719 174.609375 149.535156 172.734375 148.589844 Z M 172.734375 148.589844 " fill-opacity="1" fill-rule="nonzero"/></g><g fill="#ffe7be" fill-opacity="1"><g transform="translate(83.416983, 210.867673)"><g><path d="M 22.054688 -5.308594 L 22.8125 0 L 29.429688 0 C 28.808594 -1.449219 28.324219 -3.929688 28.050781 -5.789062 L 27.152344 -11.921875 C 24.808594 -8.820312 20.539062 -3.996094 15.09375 -2.480469 C 11.234375 -1.449219 6.066406 -2.480469 6.066406 -7.238281 C 6.066406 -14.195312 14.265625 -15.4375 19.917969 -16.058594 C 24.121094 -16.472656 29.496094 -17.4375 29.496094 -22.398438 C 29.496094 -29.496094 20.539062 -30.1875 15.574219 -30.1875 C 9.648438 -30.1875 3.996094 -28.875 0 -27.015625 L 1.652344 -23.707031 C 6.203125 -27.152344 11.027344 -29.703125 16.609375 -29.082031 C 19.984375 -28.738281 23.019531 -26.878906 23.433594 -23.15625 C 23.984375 -19.019531 19.917969 -16.953125 16.402344 -16.472656 C 12.542969 -15.988281 8.40625 -16.265625 4.894531 -14.542969 C 2 -13.09375 -0.0703125 -10.542969 0 -7.167969 C 0 -2.136719 5.03125 0 9.371094 0 C 14.058594 0 17.78125 -1.929688 22.054688 -5.308594 Z M 22.054688 -5.308594 "/></g></g></g><g fill="#ffe7be" fill-opacity="1"><g transform="translate(118.834819, 210.867673)"><g><path d="M 23.777344 -22.535156 L 23.777344 -6.066406 C 21.570312 -4.894531 18.675781 -3.445312 15.714844 -2.34375 C 9.234375 -0.0703125 6.683594 -3.101562 6.683594 -9.304688 L 6.683594 -22.535156 C 6.683594 -26.671875 7.375 -30.1875 7.375 -30.1875 L 0 -30.1875 C 0 -30.1875 0.6875 -26.671875 0.6875 -22.535156 L 0.6875 -9.441406 C 0.6875 -3.722656 2.207031 0 8.683594 0 C 13.785156 0 19.710938 -2.894531 23.777344 -4.960938 L 23.777344 0 L 30.460938 0 C 30.460938 0 29.773438 -3.515625 29.773438 -7.582031 L 29.773438 -22.535156 C 29.773438 -26.671875 30.460938 -30.1875 30.460938 -30.1875 L 23.085938 -30.1875 C 23.085938 -30.1875 23.777344 -26.671875 23.777344 -22.535156 Z M 23.777344 -22.535156 "/></g></g></g><g fill="#ffe7be" fill-opacity="1"><g transform="translate(155.286252, 210.867673)"><g><path d="M 25.5 -23.707031 L 27.222656 -27.152344 C 24.671875 -29.359375 23.226562 -29.980469 21.296875 -30.1875 C 17.4375 -30.460938 10.199219 -26.945312 6.683594 -25.15625 L 6.683594 -30.1875 L 0 -30.1875 C 0 -30.1875 0.6875 -26.671875 0.6875 -22.535156 L 0.6875 -7.582031 C 0.6875 -3.515625 0 0 0 0 L 7.375 0 C 7.375 0 6.683594 -3.515625 6.683594 -7.582031 L 6.683594 -24.121094 C 8.40625 -25.015625 10.476562 -26.050781 12.679688 -27.015625 C 17.574219 -29.015625 22.261719 -28.050781 25.5 -23.707031 Z M 25.5 -23.707031 "/></g></g></g><g fill="#ffe7be" fill-opacity="1"><g transform="translate(187.603312, 210.867673)"><g><path d="M 15.09375 -30.1875 C 6.753906 -30.1875 0 -23.433594 0 -15.09375 C 0 -6.753906 6.753906 0 15.09375 0 C 23.433594 0 30.1875 -6.753906 30.1875 -15.09375 C 30.1875 -23.433594 23.433594 -30.1875 15.09375 -30.1875 Z M 23.085938 -3.238281 C 18.882812 -0.414062 11.921875 -3.445312 7.511719 -9.992188 C 3.101562 -16.539062 2.894531 -24.121094 7.097656 -26.945312 C 11.300781 -29.773438 18.261719 -26.738281 22.675781 -20.191406 C 27.085938 -13.644531 27.222656 -6.066406 23.085938 -3.238281 Z M 23.085938 -3.238281 "/></g></g></g><g fill="#ffe7be" fill-opacity="1"><g transform="translate(223.848031, 210.867673)"><g><path d="M 25.5 -23.707031 L 27.222656 -27.152344 C 24.671875 -29.359375 23.226562 -29.980469 21.296875 -30.1875 C 17.4375 -30.460938 10.199219 -26.945312 6.683594 -25.15625 L 6.683594 -30.1875 L 0 -30.1875 C 0 -30.1875 0.6875 -26.671875 0.6875 -22.535156 L 0.6875 -7.582031 C 0.6875 -3.515625 0 0 0 0 L 7.375 0 C 7.375 0 6.683594 -3.515625 6.683594 -7.582031 L 6.683594 -24.121094 C 8.40625 -25.015625 10.476562 -26.050781 12.679688 -27.015625 C 17.574219 -29.015625 22.261719 -28.050781 25.5 -23.707031 Z M 25.5 -23.707031 "/></g></g></g><g fill="#ffe7be" fill-opacity="1"><g transform="translate(256.165091, 210.867673)"><g><path d="M 22.054688 -5.308594 L 22.8125 0 L 29.429688 0 C 28.808594 -1.449219 28.324219 -3.929688 28.050781 -5.789062 L 27.152344 -11.921875 C 24.808594 -8.820312 20.539062 -3.996094 15.09375 -2.480469 C 11.234375 -1.449219 6.066406 -2.480469 6.066406 -7.238281 C 6.066406 -14.195312 14.265625 -15.4375 19.917969 -16.058594 C 24.121094 -16.472656 29.496094 -17.4375 29.496094 -22.398438 C 29.496094 -29.496094 20.539062 -30.1875 15.574219 -30.1875 C 9.648438 -30.1875 3.996094 -28.875 0 -27.015625 L 1.652344 -23.707031 C 6.203125 -27.152344 11.027344 -29.703125 16.609375 -29.082031 C 19.984375 -28.738281 23.019531 -26.878906 23.433594 -23.15625 C 23.984375 -19.019531 19.917969 -16.953125 16.402344 -16.472656 C 12.542969 -15.988281 8.40625 -16.265625 4.894531 -14.542969 C 2 -13.09375 -0.0703125 -10.542969 0 -7.167969 C 0 -2.136719 5.03125 0 9.371094 0 C 14.058594 0 17.78125 -1.929688 22.054688 -5.308594 Z M 22.054688 -5.308594 "/></g></g></g><g fill="#ffe7be" fill-opacity="1"><g transform="translate(119.731748, 247.766614)"><g><path d="M 7.179688 -15.90625 L 9.214844 -15.90625 L 9.214844 -16.375 L 0.890625 -16.375 L 0.890625 0 L 3.226562 0 L 3.226562 -6.785156 L 8.070312 -6.785156 L 8.070312 -7.25 L 3.226562 -7.25 L 3.226562 -15.90625 Z M 7.179688 -15.90625 "/></g></g></g><g fill="#ffe7be" fill-opacity="1"><g transform="translate(136.199814, 247.766614)"><g><path d="M 5.707031 -16.75 C 2.691406 -16.75 0.9375 -15.042969 0.9375 -12.164062 L 0.9375 -4.210938 C 0.9375 -1.332031 2.691406 0.375 5.707031 0.375 C 8.726562 0.375 10.480469 -1.332031 10.480469 -4.210938 L 10.480469 -12.164062 C 10.480469 -15.042969 8.726562 -16.75 5.707031 -16.75 Z M 5.707031 -16.28125 C 7.109375 -16.28125 8.140625 -15.367188 8.140625 -13.730469 L 8.140625 -2.644531 C 8.140625 -1.007812 7.109375 -0.09375 5.707031 -0.09375 C 4.304688 -0.09375 3.273438 -1.007812 3.273438 -2.644531 L 3.273438 -13.730469 C 3.273438 -15.367188 4.304688 -16.28125 5.707031 -16.28125 Z M 5.707031 -16.28125 "/></g></g></g><g fill="#ffe7be" fill-opacity="1"><g transform="translate(154.585909, 247.766614)"><g><path d="M 6.949219 -16.375 L 0.9375 -16.375 L 0.9375 0 L 3.273438 0 L 3.273438 -6.363281 L 5.355469 -6.363281 C 6.128906 -6.363281 6.738281 -5.917969 6.996094 -5.214844 L 8.914062 0 L 11.390625 0 L 9.589844 -5.007812 C 9.285156 -5.777344 8.632812 -6.339844 7.8125 -6.597656 C 9.332031 -6.972656 10.457031 -8.28125 10.457031 -9.871094 L 10.457031 -12.867188 C 10.457031 -14.785156 8.867188 -16.375 6.949219 -16.375 Z M 3.273438 -15.90625 L 5.660156 -15.90625 C 7.019531 -15.90625 8.117188 -14.808594 8.117188 -13.449219 L 8.117188 -9.285156 C 8.117188 -7.929688 7.019531 -6.832031 5.660156 -6.832031 L 3.273438 -6.832031 Z M 3.273438 -15.90625 "/></g></g></g><g fill="#ffe7be" fill-opacity="1"><g transform="translate(173.346261, 247.766614)"><g><path d="M 0.890625 -16.375 L 0.890625 0 L 9.214844 0 L 9.214844 -0.46875 L 3.226562 -0.46875 L 3.226562 -7.953125 L 8.070312 -7.953125 L 8.070312 -8.421875 L 3.226562 -8.421875 L 3.226562 -15.90625 L 9.214844 -15.90625 L 9.214844 -16.375 Z M 0.890625 -16.375 "/></g></g></g><g fill="#ffe7be" fill-opacity="1"><g transform="translate(190.141798, 247.766614)"><g><path d="M 5.707031 -16.75 C 2.714844 -16.75 0.9375 -15.042969 0.9375 -12.164062 L 0.9375 -4.210938 C 0.9375 -1.332031 2.714844 0.375 5.707031 0.375 C 8.726562 0.375 10.480469 -1.332031 10.480469 -4.210938 L 10.480469 -5.261719 L 8.140625 -5.261719 L 8.140625 -2.644531 C 8.140625 -1.007812 7.109375 -0.09375 5.707031 -0.09375 C 4.304688 -0.09375 3.273438 -1.007812 3.273438 -2.644531 L 3.273438 -13.730469 C 3.273438 -15.367188 4.304688 -16.28125 5.707031 -16.28125 C 7.109375 -16.28125 8.140625 -15.367188 8.140625 -13.730469 L 8.140625 -11.113281 L 10.480469 -11.113281 L 10.480469 -12.164062 C 10.480469 -15.042969 8.726562 -16.75 5.707031 -16.75 Z M 5.707031 -16.75 "/></g></g></g><g fill="#ffe7be" fill-opacity="1"><g transform="translate(208.527892, 247.766614)"><g><path d="M 4.46875 -16.375 L 0.234375 0 L 0.703125 0 L 2.011719 -5.054688 L 7.4375 -5.054688 L 8.75 0 L 11.160156 0 L 6.949219 -16.375 Z M 7.320312 -5.519531 L 2.128906 -5.519531 L 4.75 -15.53125 Z M 7.320312 -5.519531 "/></g></g></g><g fill="#ffe7be" fill-opacity="1"><g transform="translate(226.913991, 247.766614)"><g><path d="M 5.707031 -16.75 C 2.761719 -16.75 0.9375 -15.089844 0.9375 -12.328125 L 0.9375 -10.902344 C 0.9375 -9.402344 1.917969 -8.140625 3.367188 -7.765625 L 6.574219 -6.902344 C 7.484375 -6.644531 8.140625 -5.824219 8.140625 -4.867188 L 8.140625 -2.761719 C 8.140625 -1.050781 7.179688 -0.09375 5.707031 -0.09375 C 4.234375 -0.09375 3.273438 -1.050781 3.273438 -2.761719 L 3.273438 -5.261719 L 0.9375 -5.261719 L 0.9375 -4.046875 C 0.9375 -1.285156 2.761719 0.375 5.707031 0.375 C 8.65625 0.375 10.480469 -1.285156 10.480469 -4.046875 L 10.480469 -5.472656 C 10.480469 -6.972656 9.496094 -8.234375 8.046875 -8.609375 L 4.820312 -9.472656 C 3.90625 -9.730469 3.273438 -10.550781 3.273438 -11.507812 L 3.273438 -13.613281 C 3.273438 -15.320312 4.234375 -16.28125 5.707031 -16.28125 C 7.179688 -16.28125 8.140625 -15.320312 8.140625 -13.613281 L 8.140625 -11.113281 L 10.480469 -11.113281 L 10.480469 -12.328125 C 10.480469 -15.089844 8.65625 -16.75 5.707031 -16.75 Z M 5.707031 -16.75 "/></g></g></g><g fill="#ffe7be" fill-opacity="1"><g transform="translate(245.300091, 247.766614)"><g><path d="M 8.351562 -15.90625 L 9.753906 -15.90625 L 9.753906 -16.375 L 0.234375 -16.375 L 0.234375 -15.90625 L 3.859375 -15.90625 L 3.859375 0 L 6.199219 0 L 6.199219 -15.90625 Z M 8.351562 -15.90625 "/></g></g></g></svg>